<svg width="15" height="12" viewBox="0 0 15 12" fill="none" xmlns="http://www.w3.org/2000/svg">
<path d="M14.0212 2.94297V9.13222C14.0212 10.2023 13.1541 11.0694 12.084 11.0694H1.93714C1.42338 11.0694 0.930658 10.8653 0.567374 10.502C0.204091 10.1387 0 9.64598 0 9.13222V2.94297L6.78847 6.67704C6.92684 6.75305 7.09472 6.75305 7.23272 6.67704L14.0212 2.94297ZM12.084 8.3309e-09C12.5897 4.69914e-05 13.0753 0.197829 13.4372 0.551098C13.799 0.904366 14.0083 1.38511 14.0204 1.89065L7.01059 5.74647L0.000737904 1.89028L0.00147598 1.85707C0.0221397 1.35757 0.235116 0.885394 0.595867 0.53929C0.956618 0.193186 1.43721 -4.63263e-05 1.93714 8.3309e-09H12.084Z" fill="#646D3C"/>
</svg>
