<svg width="13" height="14" viewBox="0 0 13 14" fill="none" xmlns="http://www.w3.org/2000/svg">
<path d="M12.9581 3.8434C12.9508 3.29665 12.8485 2.75534 12.6557 2.24367C12.4884 1.81208 12.233 1.42012 11.9057 1.09284C11.5784 0.76555 11.1865 0.510132 10.7549 0.342903C10.2498 0.153301 9.7162 0.0507795 9.17681 0.0397046C8.48234 0.00866286 8.26216 0 6.49928 0C4.7364 0 4.51044 4.84073e-08 3.82102 0.0397046C3.28188 0.0508609 2.74853 0.153381 2.24367 0.342903C1.81201 0.510016 1.42 0.765392 1.09269 1.09269C0.765392 1.42 0.510015 1.81201 0.342903 2.24367C0.152921 2.74837 0.050622 3.28184 0.0404265 3.82102C0.00938471 4.51622 0 4.7364 0 6.49928C0 8.26216 -5.37858e-09 8.4874 0.0404265 9.17753C0.051255 9.71751 0.153043 10.2503 0.342903 10.7563C0.510296 11.1879 0.765862 11.5797 1.09327 11.9069C1.42068 12.234 1.81274 12.4893 2.24439 12.6564C2.74787 12.8536 3.28131 12.9635 3.82175 12.9812C4.51694 13.0123 4.73712 13.0217 6.5 13.0217C8.26288 13.0217 8.48884 13.0217 9.17826 12.9812C9.71763 12.9706 10.2513 12.8683 10.7563 12.6788C11.1878 12.5113 11.5797 12.2558 11.9069 11.9286C12.2342 11.6013 12.4897 11.2095 12.6571 10.778C12.847 10.2727 12.9487 9.73989 12.9596 9.19919C12.9906 8.50472 13 8.28454 13 6.52094C12.9986 4.75805 12.9986 4.53426 12.9581 3.8434ZM6.49495 9.83302C4.65121 9.83302 3.1576 8.33941 3.1576 6.49567C3.1576 4.65193 4.65121 3.15832 6.49495 3.15832C7.38007 3.15832 8.22894 3.50993 8.85481 4.13581C9.48069 4.76168 9.8323 5.61055 9.8323 6.49567C9.8323 7.38079 9.48069 8.22966 8.85481 8.85553C8.22894 9.48141 7.38007 9.83302 6.49495 9.83302ZM9.96513 3.81308C9.86291 3.81318 9.76167 3.79311 9.66721 3.75404C9.57275 3.71496 9.48692 3.65765 9.41464 3.58536C9.34236 3.51308 9.28504 3.42725 9.24596 3.33279C9.20689 3.23833 9.18682 3.1371 9.18692 3.03487C9.18692 2.93272 9.20704 2.83158 9.24613 2.7372C9.28522 2.64283 9.34251 2.55708 9.41475 2.48485C9.48697 2.41262 9.57272 2.35533 9.6671 2.31624C9.76147 2.27714 9.86262 2.25702 9.96477 2.25702C10.0669 2.25702 10.1681 2.27714 10.2624 2.31624C10.3568 2.35533 10.4426 2.41262 10.5148 2.48485C10.587 2.55708 10.6443 2.64283 10.6834 2.7372C10.7225 2.83158 10.7426 2.93272 10.7426 3.03487C10.7426 3.46513 10.3947 3.81308 9.96513 3.81308Z" fill="#646D3C"/>
<path d="M6.49502 8.6635C7.6923 8.6635 8.66289 7.69291 8.66289 6.49563C8.66289 5.29835 7.6923 4.32776 6.49502 4.32776C5.29774 4.32776 4.32715 5.29835 4.32715 6.49563C4.32715 7.69291 5.29774 8.6635 6.49502 8.6635Z" fill="#646D3C"/>
</svg>
