<svg width="617" height="287" viewBox="0 0 617 287" fill="none" xmlns="http://www.w3.org/2000/svg">
<path d="M84.7843 149.158C85.6597 149.177 86.3034 149.628 86.5866 150.381C86.8698 151.134 86.7862 151.9 86.3356 152.666C85.9172 153.387 85.3121 154.288 84.5333 155.363C83.7545 156.444 83.0014 157.577 82.2483 158.536C81.6754 159.264 81.1154 159.901 80.7485 160.416C73.8998 169.987 67.7527 179.848 62.3008 189.96C61.567 191.177 61.0328 192.413 60.6852 193.668C60.344 194.923 60.2797 196.268 60.4985 197.71C61.4125 203.69 62.1656 211.201 62.8093 220.239C63.453 229.276 63.5367 238.281 63.099 247.26C62.6613 256.239 61.3546 263.622 59.1468 269.428C57.4475 273.502 54.448 276.483 50.2898 278.008C43.8274 280.377 38.5621 278.272 35.6527 272.112C32.8399 266.152 31.6297 258.943 31.9323 251.032C32.2348 243.121 33.5157 235.191 35.8329 227.255C38.1502 219.318 40.8793 212.392 43.9818 206.496C45.3529 203.239 46.0416 198.154 46.0738 191.228C46.0995 184.302 45.7198 178.355 44.8315 173.495C44.3809 171.03 43.8145 169.743 43.1773 169.659C42.54 169.582 41.6003 170.212 40.358 171.371C39.2895 172.369 37.8348 173.424 36.1741 174.564C34.507 175.703 32.3313 176.707 29.8275 177.293C26.3645 178.097 23.3135 177.628 21.0928 176.115C18.8657 174.609 17.3144 172.53 16.4455 169.871C15.5765 167.213 15.2096 164.477 15.6216 162.031C16.0464 159.521 17.1535 156.863 18.5825 154.327C20.0114 151.791 21.685 149.403 23.6031 147.169C26.8151 143.603 30.8895 141.917 35.7621 142.129C36.483 142.206 37.1203 142.399 37.6738 142.721C38.2274 143.043 38.5557 143.526 38.6394 144.17C38.7166 144.775 38.575 145.283 38.221 145.676C37.8669 146.068 37.4228 146.384 36.8821 146.615C33.432 148.888 30.9732 151.823 29.5121 155.402C28.0509 158.974 27.4587 162.212 27.7162 165.089C27.9672 167.973 28.9328 169.517 30.5999 169.743C31.6555 169.595 32.8399 168.777 34.1723 167.303C35.5047 165.829 36.7148 164.201 37.8155 162.43C38.9161 160.66 39.7143 159.341 40.2099 158.491C41.5745 155.498 44.0784 153.541 47.6894 152.64C51.7317 151.63 54.2742 152.859 55.0852 156.155C55.6452 158.44 55.9928 161.072 56.2438 163.872C56.5464 167.252 56.939 170.393 57.7114 172.697C58.4388 174.879 60.093 175.124 62.127 173.154C64.161 171.184 66.858 167.966 70.2695 163.499C72.2069 161.014 74.0285 158.684 75.7343 156.515C77.44 154.34 78.9591 152.582 80.2851 151.231C81.6239 149.885 83.2009 149.119 84.7843 149.158ZM52.1758 258.833C52.6586 253.594 52.6908 245.992 52.6457 236.375C52.5942 226.759 52.1308 219.376 51.1395 214.24C50.3349 216.724 49.6526 218.488 49.0926 219.518C48.848 220.026 48.7 220.464 48.6356 220.844C46.3956 227.519 44.6126 234.277 43.351 241.055C42.4628 245.837 42.1088 250.388 42.2375 254.649C42.3662 258.91 43.2481 263.358 44.7156 267.928C45.3014 269.763 45.9193 271.056 46.5952 271.764C47.271 272.473 47.9404 272.202 48.6292 270.953C50.5087 267.098 51.7896 262.991 52.1758 258.833Z" fill="#646D3C"/>
<path d="M137.225 139.072C137.675 139.027 138.061 139.13 138.261 139.265C138.46 139.4 138.744 139.709 139.014 140.147C139.278 140.578 139.175 141.221 138.737 141.994C138.293 142.766 137.875 143.397 137.476 143.893C134.457 147.394 130.653 149.84 126.083 151.295C123.463 152.125 120.792 152.737 118.075 153.097C115.359 153.458 112.52 153.483 109.81 152.988C107.809 152.621 106.064 153.162 104.725 154.803C101.932 158.195 98.9967 161.516 95.92 164.773C94.3365 166.408 92.6244 167.869 90.777 169.157C88.9297 170.438 86.7798 171.506 84.4755 172.092C77.7362 173.798 73.9578 171.339 73.9771 165.063C73.9964 164.786 74.0544 164.555 74.1445 164.374C74.9877 159.077 76.6355 154.082 79.1008 149.409C81.566 144.736 85.132 140.501 89.8051 136.729C92.8883 134.212 96.4864 132.725 100.587 132.287C101.668 132.255 102.775 132.429 103.799 132.667C105.015 132.944 105.717 133.594 105.723 134.72C105.704 135.074 105.582 135.403 105.35 135.699C105.118 136.001 104.873 136.291 104.616 136.581C104.481 136.806 104.281 136.98 104.017 137.115C103.753 137.25 103.457 137.347 103.161 137.411C100.348 138.035 98.0119 139.323 96.2547 141.125C94.4975 142.927 92.9848 144.923 91.6846 146.95C90.2556 149.177 88.9104 151.591 87.8161 154.146C86.7219 156.702 86.0203 159.618 85.7177 162.894C88.994 160.133 91.4979 157.603 93.2101 155.273C93.5834 154.758 94.0147 154.282 94.3687 153.844C94.6841 153.458 94.9995 153.039 95.3214 152.698C96.8662 150.761 98.5462 148.9 100.348 147.401C102.357 145.734 104.687 144.672 107.004 144.189C109.328 143.706 111.754 144.073 114.271 145.277C117.741 146.995 120.817 147.33 123.553 146.294C126.289 145.251 128.799 143.899 130.994 142.213C133.227 140.481 135.448 139.239 137.225 139.072Z" fill="#646D3C"/>
<path d="M222.93 127.923C223.76 127.82 224.5 127.82 225.047 128.065C225.594 128.303 225.781 129.03 225.968 129.68C226.071 130.034 226.051 130.71 225.594 131.547C225.137 132.384 224.603 133.201 223.998 133.999C223.387 134.798 222.923 135.377 222.608 135.75C219.705 138.936 216.416 141.17 212.727 142.457C209.039 143.751 204.997 144.292 200.607 144.073C198.476 143.963 196.565 143.416 194.885 142.444C193.211 141.466 191.686 140.217 190.328 138.698C190.231 138.595 190.134 138.512 190.038 138.447C188.474 136.716 186.781 135.023 184.946 133.375C184.052 132.564 183.247 132.204 182.533 132.3C181.818 132.39 181.033 132.912 180.183 133.864C177.621 136.574 175.542 139.619 173.85 142.708C172.311 145.521 169.53 147.053 165.849 147.349C163.113 147.574 161.111 146.628 159.901 144.427C159.644 143.886 159.489 143.294 159.38 142.715C158.839 139.863 157.835 139.027 156.76 140.462C155.679 141.897 154.687 143.79 153.78 146.126C153.439 147.027 152.949 147.967 152.505 148.868C151.997 149.911 151.463 151.108 150.999 152.17C150.51 153.297 150.008 154.545 149.416 155.723C148.373 157.59 146.706 158.813 144.414 159.399C140.205 160.467 137.289 159.128 136.31 155.71C135.474 152.782 134.901 149.454 134.193 146.409C133.871 145.013 133.517 143.564 133.163 142.129C132.867 140.912 132.629 139.548 132.339 138.273C131.843 136.111 131.142 133.781 130.665 131.56C130.035 128.631 131.367 126.745 134.598 125.941C138.093 125.072 140.456 125.992 141.395 128.599C142.239 130.936 143.05 133.517 143.552 135.879C143.887 137.443 144.202 138.499 144.672 138.788C145.142 139.078 145.554 139.084 145.908 138.814C146.262 138.544 146.603 138.17 146.925 137.694C146.918 137.649 146.912 137.63 146.905 137.578C147.227 137.102 147.523 136.632 147.806 136.156C148.566 134.836 149.416 133.6 150.349 132.455C152.879 129.854 156.142 128.47 159.991 128.2C163.351 127.962 165.984 128.979 167.786 131.335C168.398 132.21 169.176 132.236 170.123 131.412C171.075 130.588 172.369 129.603 174.01 128.464C175.652 127.325 177.525 126.443 179.623 125.825C184.573 124.267 189.06 124.885 192.999 127.653C194.788 129.017 196.545 130.543 198.27 132.229C198.419 132.365 198.586 132.519 198.779 132.693C199.223 133.143 199.725 133.633 200.124 134.154C200.446 134.572 200.819 135.094 201.264 135.583C203.059 137.224 204.836 137.977 206.606 137.836C208.376 137.694 210.088 137.038 211.743 135.866C213.397 134.695 214.987 133.407 216.525 132.011C217.735 130.91 218.868 129.977 219.924 129.217C220.96 128.425 222.016 128.039 222.93 127.923Z" fill="#646D3C"/>
<path d="M297.808 124.879C299.823 125.818 299.868 127.099 297.963 128.728C296.057 130.356 293.206 132.114 289.434 134.019C285.656 135.924 281.877 137.681 278.093 139.284C274.301 140.893 271.533 142.084 269.757 142.831C269.126 143.12 268.766 143.307 268.682 143.384C263.751 145.74 259.053 148.257 254.592 150.928C250.131 153.599 245.381 156.264 240.354 158.935C238.03 160.274 235.462 160.628 232.617 160.01C231.967 159.791 231.497 159.36 231.214 158.717C230.931 158.073 231.001 157.519 231.439 157.069C231.516 156.985 231.632 156.863 231.793 156.695C233.544 155.112 235.488 153.728 237.425 152.499C239.974 150.883 241.97 148.54 243.353 145.721C244.737 142.908 245.819 140.024 246.475 137.154C247.003 134.83 247.183 132.332 247.357 130.067C247.428 129.108 247.364 128.091 247.022 127.144C246.681 126.192 245.954 125.419 244.885 124.956C243.463 124.338 241.854 124.744 240.257 126.108C238.661 127.473 237.168 129.32 235.784 131.65C234.4 133.98 233.28 136.265 232.405 138.505C231.536 140.745 231.001 142.47 230.789 143.667C230.409 145.792 228.916 146.982 226.566 147.381C223.625 147.884 221.649 146.931 221.012 144.356C219.57 138.486 218.488 129.281 217.51 117.219C216.532 105.163 216.023 92.2189 216.049 78.3928C216.075 64.5668 216.918 52.0152 218.63 40.7509C220.342 29.4867 223.091 21.6082 226.817 17.1475C229.308 14.4506 232.739 13.0409 237 12.8671C242.33 12.6483 246.186 14.4312 248.271 18.2225C250.659 22.5672 251.908 27.9676 252.114 34.1984C252.326 40.4356 251.927 46.6727 250.955 52.9163C249.983 59.1535 248.889 64.5088 247.711 68.9437C245.593 76.9317 243.212 84.8424 240.56 92.6373C237.908 100.432 234.754 108.06 231.143 115.539C230.943 115.822 230.802 116.08 230.731 116.311C230.216 117.116 229.849 118.011 229.637 119.002C229.424 119.993 229.746 121.12 230.589 122.394C231.136 122.085 231.645 121.802 232.108 121.538C233.171 121.042 234.175 120.547 235.114 120.064C238.107 118.745 241.448 117.921 244.834 117.882C253.556 117.779 258.731 122.233 258.95 129.693C259.001 131.509 258.776 133.433 258.499 135.255C258.119 137.752 258.724 139.059 260.231 139.085C261.743 139.11 263.925 138.377 266.802 136.89C267.015 136.806 267.311 136.677 267.697 136.51C269.821 135.512 273.04 134.019 277.391 132.049C281.736 130.08 285.945 128.355 289.994 126.868C294.062 125.387 296.669 124.731 297.808 124.879ZM228.491 67.7787C228.427 69.8642 228.311 72.7607 228.227 76.3846C228.124 80.7294 228.015 85.2544 227.867 89.9145C227.719 94.5812 227.641 98.2694 227.622 100.979C228.974 99.1963 230.287 95.6046 231.606 90.2106C232.919 84.8167 234.149 78.8949 235.288 72.4453C236.428 66.0022 237.367 60.3443 238.095 55.4781C238.816 50.612 239.253 47.7798 239.33 47.0267C239.395 46.3895 239.466 44.8254 239.575 42.3794C239.684 39.9399 239.704 37.3137 239.633 34.5138C239.562 31.7138 239.279 29.3 238.796 27.2725C238.307 25.2449 237.483 24.2279 236.325 24.2279C235.99 24.3245 235.681 24.524 235.385 24.833C235.089 25.1355 234.831 25.4702 234.612 25.8242C234.072 27.1952 233.64 28.6113 233.299 30.0853C233.209 30.2462 233.177 30.4587 233.196 30.7226C231.484 36.7859 230.313 42.9201 229.669 49.1315C229.032 55.3301 228.684 61.5995 228.491 67.7787Z" fill="#646D3C"/>
<path d="M353.499 126.488C353.994 126.25 354.773 125.973 355.835 125.664C356.904 125.355 357.914 125.201 358.88 125.201C359.845 125.201 360.495 125.567 360.856 126.256C361.12 126.765 361.178 127.247 361.004 127.692C360.824 128.136 360.528 128.522 360.116 128.844C357.592 130.987 353.769 133.086 348.671 135.197C343.573 137.308 338.34 139.168 332.959 140.803C327.584 142.432 323.13 143.494 319.628 143.983C315.612 144.543 311.447 144.736 307.36 144.324C302.339 143.822 298.477 141.891 295.948 138.737C293.424 135.583 292.279 131.933 292.787 128.071C293.36 123.733 295.755 120.109 299.655 117.483C303.556 114.857 308.126 113.969 313.14 114.625C316.185 115.024 319.101 115.99 321.495 117.644C324.173 119.498 325.351 121.808 325.016 124.274C324.681 126.739 322.95 128.606 319.847 129.886C318.232 130.543 316.449 130.949 314.492 131.103C312.542 131.251 310.263 131.225 307.656 131.026C307.399 131.026 307.122 131.026 306.845 131.026C306.562 131.026 306.266 131.026 305.963 131.026C305.184 131.026 304.669 131.219 304.431 131.599C304.193 131.978 304.18 132.455 304.399 133.028C305.828 136.149 308.609 137.791 312.767 137.997C316.919 138.203 321.643 137.578 326.966 136.143C332.29 134.708 337.375 133.06 342.228 131.193C347.094 129.314 350.86 127.762 353.499 126.488ZM307.572 121.602C306.916 122.021 306.465 122.504 306.221 123.057C305.976 123.611 305.834 124.074 305.796 124.454C305.751 124.834 305.815 125.065 305.989 125.143C306.163 125.22 306.71 125.323 307.624 125.458C308.538 125.593 309.555 125.619 310.669 125.529C311.782 125.439 312.703 125.239 313.423 124.924C314.144 124.608 314.44 123.965 314.196 123.192C313.829 122.059 312.805 121.255 311.428 120.946C310.044 120.624 308.757 120.849 307.572 121.602ZM307.675 131.019C307.592 131.019 307.502 131.019 307.418 131.019C307.469 131.019 307.495 131.019 307.547 131.019C307.598 131.019 307.624 131.019 307.675 131.019Z" fill="#646D3C"/>
<path d="M412.144 132.358C413.907 131.103 415.401 130.698 416.604 131.142C417.808 131.586 418.484 132.474 418.638 133.794C418.786 135.113 418.188 136.497 416.836 137.952C414.107 140.739 410.399 143.655 405.746 146.738C401.098 149.821 396.206 152.447 391.076 154.636C385.94 156.824 381.209 157.88 376.851 157.764C368.02 157.526 364.094 153.477 365.162 145.502C365.316 144.446 365.638 143.03 366.14 141.273C366.636 139.554 367.061 137.881 367.408 136.265C367.75 134.65 367.711 133.44 367.267 132.937C366.797 132.41 366.025 132.114 365.265 132.069C364.505 132.023 363.682 132.036 362.813 132.146C361.854 132.268 360.952 132.262 360.141 132.101C355.745 131.431 353.492 129.269 353.55 125.741C353.634 120.875 354.998 116.118 357.451 111.716C358.236 110.351 359.614 109.489 361.596 109.147C363.579 108.806 365.362 109.102 366.951 110.042C367.981 110.679 368.432 111.51 368.265 112.469C368.033 113.801 367.627 115.153 367.145 116.46C366.932 117.019 366.739 117.599 366.572 118.197C365.516 121.641 365.413 123.45 366.256 123.636C367.099 123.823 369.031 122.999 372.062 121.19C374.302 120.013 376.729 119.646 379.291 120.058C382.715 120.605 384.06 122.484 383.101 125.394C382.445 127.395 381.608 129.513 380.835 131.624C379.181 135.956 377.669 140.481 376.825 144.82C376.253 147.755 376.819 149.712 378.267 150.342C379.715 150.967 381.73 150.812 384.311 149.885C386.899 148.958 389.654 147.665 392.589 146.004C395.524 144.343 398.15 142.708 400.461 141.086C402.772 139.464 404.368 138.28 405.231 137.533C405.662 137.16 406.318 136.645 407.194 135.988C408.069 135.338 408.983 134.682 409.936 134.019C410.966 133.285 411.706 132.732 412.144 132.358Z" fill="#646D3C"/>
<path d="M469.895 139.381C470.416 139.2 471.22 139.02 472.321 138.846C473.422 138.673 474.452 138.64 475.411 138.75C476.37 138.866 476.981 139.31 477.252 140.037C477.451 140.571 477.458 141.061 477.226 141.485C476.994 141.904 476.653 142.251 476.203 142.522C473.435 144.343 469.373 145.972 464.044 147.452C458.714 148.933 453.281 150.156 447.733 151.128C442.184 152.1 437.627 152.615 434.087 152.679C430.019 152.756 425.854 152.441 421.844 151.546C416.907 150.445 413.303 148.064 411.166 144.627C409.035 141.196 408.334 137.43 409.299 133.658C410.387 129.423 413.2 126.108 417.397 123.971C421.587 121.834 426.241 121.493 431.152 122.755C434.132 123.521 436.919 124.821 439.101 126.758C441.541 128.921 442.442 131.36 441.811 133.768C441.18 136.175 439.236 137.816 435.992 138.718C434.306 139.175 432.484 139.361 430.521 139.278C428.558 139.194 426.299 138.891 423.73 138.383C423.473 138.351 423.202 138.319 422.919 138.28C422.636 138.248 422.346 138.209 422.044 138.171C421.265 138.074 420.737 138.203 420.454 138.55C420.171 138.898 420.106 139.368 420.254 139.966C421.304 143.236 423.872 145.199 427.979 145.907C432.085 146.615 436.855 146.558 442.326 145.772C447.797 144.987 453.056 143.964 458.109 142.696C463.175 141.421 467.107 140.333 469.895 139.381ZM424.767 129.017C424.065 129.352 423.556 129.777 423.254 130.298C422.945 130.82 422.752 131.264 422.662 131.637C422.572 132.011 422.61 132.242 422.771 132.339C422.932 132.435 423.466 132.603 424.361 132.847C425.256 133.092 426.26 133.24 427.38 133.285C428.5 133.33 429.44 133.24 430.193 133.015C430.946 132.789 431.319 132.184 431.165 131.386C430.939 130.215 430.013 129.301 428.68 128.824C427.341 128.342 426.035 128.406 424.767 129.017ZM423.737 138.376C423.653 138.364 423.563 138.357 423.479 138.344C423.531 138.351 423.556 138.351 423.608 138.357C423.659 138.37 423.685 138.37 423.737 138.376Z" fill="#646D3C"/>
<path d="M516.039 163.686C515.119 164.22 514.231 164.741 513.368 165.25C510.092 167.245 506.442 168.668 502.406 169.517C498.37 170.373 494.199 170.341 490.221 169.221C484.622 167.644 480.238 164.696 477.342 160.854C474.445 157.011 472.495 152.718 471.497 147.948C470.506 143.178 470.074 138.589 470.184 134.225C470.448 123.347 471.716 112.488 474.226 101.797C474.902 98.6492 475.237 97.0723 475.913 93.9183C476.08 92.9399 476.743 90.2622 477.921 85.8659C477.992 85.454 478.062 85.042 478.133 84.6301C472.823 83.7225 470.165 83.2848 464.848 82.4481C462.222 82.1906 459.698 81.5534 457.278 80.5364C456.216 80.1115 455.367 79.6159 454.723 79.0623C454.079 78.5088 453.847 77.8973 454.041 77.2343C454.221 76.61 454.807 76.1723 455.779 75.9341C456.757 75.6959 457.851 75.6766 459.036 75.844C463.561 76.4877 468.156 77.1378 472.701 77.8844C475.481 78.3414 476.872 78.5732 479.652 79.0495C479.768 78.3736 479.929 77.8458 480.142 77.4532C481.493 72.381 482.176 69.845 483.54 64.7793C484.499 61.3743 484.982 59.675 485.954 56.2764C485.967 56.1863 485.98 56.1412 485.993 56.0511C486.096 55.4525 486.269 54.8796 486.507 54.3454C487.737 52.0089 490.202 51.2043 493.755 52.0346C496.806 52.7491 498.396 54.4934 498.19 56.8493C498.061 58.349 497.707 59.9518 497.328 61.5094C497.167 62.3591 497.09 62.7903 496.935 63.64C496.877 63.6271 496.851 63.6271 496.793 63.6142C496.272 65.6547 496.008 66.6717 495.487 68.7121C494.322 72.6771 493.266 76.7001 492.326 80.7809C492.236 80.974 492.191 81.0706 492.095 81.2573C496.137 82.0039 498.152 82.3837 502.187 83.169C511.225 85.0034 518.157 86.471 523.01 87.4365C523.1 87.0246 523.242 86.574 523.448 86.0719C524.896 81.3667 525.81 78.2899 526.216 76.9189C527.567 72.4003 529.067 67.8367 530.477 63.3632C531.462 60.235 532.447 57.1325 533.464 54.0815C533.483 53.9914 533.496 53.9463 533.515 53.8562C533.663 53.1868 533.85 52.5495 534.081 51.9381C535.51 49.4857 538.034 48.7583 541.632 49.756C544.715 50.6121 546.17 52.4594 545.79 55.0341C545.539 56.7591 545.088 58.4842 544.618 60.0934C544.419 60.9623 544.316 61.3936 544.116 62.2625C544.058 62.2497 544.033 62.2432 543.975 62.2303C543.428 64.1742 542.919 66.1374 542.359 67.9526C541.065 72.1622 539.636 76.6228 538.355 80.9097C537.667 83.2205 536.688 86.1685 535.549 89.6958C535.44 89.9275 535.382 90.0434 535.272 90.2751C541.632 91.7298 544.805 92.4829 551.152 94.0341C557.363 95.5596 563.536 97.1688 569.664 98.8745C570.449 99.0805 570.842 99.1899 571.627 99.3959C573.14 99.7242 574.942 100.226 577.027 100.915C579.119 101.604 579.216 102.608 577.33 103.927C575.444 105.247 573.049 105.414 570.134 104.436C569.406 104.243 569.039 104.146 568.312 103.953C557.37 101.127 551.879 99.7885 540.885 97.2654C538.536 96.7118 536.154 96.1969 533.74 95.727C533.708 95.8622 533.695 95.9265 533.663 96.0617C531.552 103.425 529.692 110.808 528.05 118.198C526.415 125.587 525.257 133.105 524.645 140.655C524.162 146.616 524.658 152.621 526.023 158.614C526.731 161.871 527.876 164.574 529.447 166.73C531.018 168.887 533.148 170.232 535.665 170.515C540.312 171.043 544.419 170.341 547.547 168.745C550.675 167.149 553.533 165.25 555.992 163.042C558.329 160.944 560.781 159.289 563.33 158.176C564.424 157.848 565.184 157.848 565.596 158.182C566.008 158.511 566.22 159.006 566.22 159.656C566.22 160.306 566.149 160.957 565.975 161.517C565.609 162.675 564.991 163.744 564.289 164.632C563.587 165.527 563.105 166.112 562.847 166.396C562.783 166.428 562.751 166.441 562.693 166.473C560.581 169.009 557.782 171.313 554.299 173.412C550.817 175.51 547.026 176.952 542.913 177.75C538.793 178.555 534.641 178.368 530.676 177.055C525.128 175.22 520.925 171.976 518.202 167.644C517.346 166.299 516.631 164.986 516.039 163.686ZM490.55 86.9473C490.344 87.0696 490.17 88.254 490.054 88.8848C489.121 92.1932 488.593 94.1886 488.471 94.858C486.855 101.642 485.458 108.439 484.261 115.237C483.064 122.04 482.343 128.973 482.163 135.944C482.021 141.428 482.832 146.918 484.499 152.344C485.388 155.337 486.688 157.783 488.4 159.689C490.112 161.594 492.313 162.836 494.74 163.074C499.297 163.525 503.397 162.682 506.378 161.13C509.088 159.727 511.508 158.118 513.568 156.277C513.368 155.376 513.233 154.449 513.175 153.503C512.448 148.276 512.345 143.236 512.737 138.512C513.722 126.643 515.602 114.747 518.833 103.219C519.682 99.8079 520.101 98.1021 520.95 94.6842C521.099 93.9891 521.176 93.6479 521.324 92.9528C515.582 91.7169 512.711 91.1183 506.957 89.9661C499.523 88.5694 491.457 86.4066 490.55 86.9473Z" fill="#646D3C"/>
<path d="M605.176 172.234C605.639 172.665 605.755 173.173 605.517 173.753C605.279 174.338 604.899 174.802 604.365 175.149C600.329 177.879 596.254 180.151 592.122 181.966C587.989 183.781 583.793 184.811 579.499 185.049C575.206 185.287 570.604 184.399 565.821 182.326C562.616 180.936 560.344 179.185 559.056 177.171C557.769 175.156 557.112 172.607 557.016 169.569C556.868 164.78 557.66 159.862 559.777 155.595C561.019 153.091 563.575 152.125 566.832 152.969C569.748 153.722 571.125 155.466 570.681 157.719C570.314 159.56 569.664 161.491 569.117 163.267C569.04 163.518 568.975 163.763 568.917 163.982C567.334 168.951 567.302 172.646 568.802 175.072C570.301 177.499 572.792 178.741 576.3 178.825C579.808 178.908 583.863 177.943 588.504 175.948C589.09 175.69 589.83 175.323 590.731 174.847C591.639 174.371 592.617 173.914 593.673 173.489C595.179 172.8 596.422 172.214 597.406 171.732C600.354 170.463 602.948 170.637 605.176 172.234ZM568.235 144.659C565.68 143.854 564.457 142.168 564.682 139.78C564.856 137.932 565.635 136.304 567.038 134.978C568.261 133.819 569.973 133.253 572.078 133.285C574.189 133.317 576.004 133.987 577.517 135.28C578.09 135.757 578.437 136.304 578.572 136.915C578.701 137.527 578.624 138.003 578.495 138.286C576.378 143.133 573.211 146.223 568.235 144.659Z" fill="#646D3C"/>
<path d="M129.777 223.41C128.696 222.702 127.897 221.788 127.376 220.674C126.855 219.554 126.591 218.376 126.591 217.134C126.591 215.544 126.983 214.16 127.762 212.976C128.548 211.798 129.552 210.89 130.781 210.253C132.011 209.622 133.272 209.301 134.566 209.301C135.634 209.301 136.606 209.513 137.488 209.938C138.37 210.363 138.808 210.858 138.808 211.425C138.808 211.721 138.711 211.978 138.512 212.191C138.312 212.403 138.048 212.506 137.726 212.506C137.153 212.506 136.658 212.158 136.233 211.463C135.911 210.993 135.531 210.639 135.094 210.401C134.656 210.163 134.083 210.047 133.362 210.047C131.875 210.047 130.723 210.588 129.919 211.669C129.108 212.751 128.709 214.212 128.709 216.046C128.709 218.132 129.243 219.863 130.311 221.247C131.38 222.625 132.97 223.313 135.081 223.313C136.671 223.313 137.952 222.882 138.917 222.013H138.994C139.072 222.013 139.136 222.052 139.2 222.123C139.258 222.2 139.258 222.258 139.181 222.309C138.338 223.056 137.482 223.603 136.613 223.951C135.744 224.298 134.798 224.472 133.781 224.472C132.191 224.472 130.858 224.118 129.777 223.41Z" fill="#646D3C"/>
<path d="M164.522 222.013C164.619 222.013 164.683 222.071 164.709 222.18C164.735 222.29 164.696 222.374 164.6 222.425L160.763 224.253C160.667 224.305 160.564 224.33 160.467 224.33C160.197 224.33 159.946 224.111 159.721 223.68C159.495 223.249 159.36 222.657 159.315 221.91L157.262 223.178C156.637 223.577 156.097 223.86 155.62 224.034C155.15 224.208 154.661 224.298 154.166 224.298C153.297 224.298 152.608 224.047 152.099 223.552C151.591 223.056 151.333 222.457 151.333 221.762C151.333 221.067 151.604 220.443 152.151 219.883C152.698 219.323 153.638 218.795 154.983 218.299L159.27 216.696V214.09C159.27 211.36 158.427 209.989 156.74 209.989C155.897 209.989 155.234 210.26 154.764 210.794C154.294 211.328 153.973 211.953 153.792 212.673C153.696 213.118 153.573 213.459 153.438 213.697C153.303 213.935 153.02 214.051 152.602 214.051C152.254 214.051 151.984 213.941 151.784 213.736C151.585 213.523 151.488 213.285 151.488 213.008C151.488 212.461 151.855 211.895 152.589 211.315C153.322 210.73 154.211 210.247 155.253 209.861C156.296 209.474 157.23 209.281 158.047 209.281C159.038 209.281 159.779 209.603 160.268 210.253C160.75 210.897 160.995 211.804 160.995 212.976V220.018C160.995 220.938 161.098 221.595 161.31 221.994C161.523 222.393 161.89 222.592 162.411 222.592C162.881 222.592 163.57 222.406 164.464 222.032H164.522V222.013ZM159.27 221.382V221.273V217.211L155.324 218.705C154.603 219.001 154.108 219.329 153.831 219.67C153.554 220.018 153.419 220.43 153.419 220.9C153.419 221.498 153.606 222.007 153.979 222.425C154.352 222.85 154.874 223.062 155.543 223.062C156.09 223.062 156.734 222.85 157.481 222.425L159.27 221.382Z" fill="#646D3C"/>
<path d="M184.998 209.738C185.481 210.021 185.725 210.35 185.725 210.723C185.725 210.974 185.629 211.193 185.442 211.392C185.255 211.592 184.991 211.689 184.637 211.689C184.386 211.689 184.168 211.618 183.968 211.483C183.768 211.347 183.646 211.264 183.595 211.238C183.125 210.865 182.655 210.678 182.179 210.678C181.831 210.678 181.464 210.826 181.078 211.122C180.692 211.418 180.106 212.055 179.308 213.021V220.996C179.308 221.743 179.398 222.296 179.572 222.65C179.745 223.011 180.087 223.255 180.595 223.378C181.104 223.5 181.915 223.564 183.035 223.564C183.105 223.564 183.144 223.642 183.144 223.79C183.144 223.938 183.105 224.015 183.035 224.015C182.236 224.015 181.606 224.002 181.136 223.976L178.452 223.938L176.476 223.976C176.154 224.002 175.703 224.015 175.137 224.015C175.066 224.015 175.027 223.944 175.027 223.79C175.027 223.642 175.066 223.564 175.137 223.564C175.858 223.564 176.379 223.5 176.701 223.378C177.023 223.255 177.248 223.011 177.37 222.65C177.493 222.29 177.557 221.736 177.557 220.996V213.542C177.557 212.673 177.46 212.049 177.261 211.676C177.061 211.302 176.714 211.116 176.218 211.116C175.819 211.116 175.124 211.302 174.133 211.676H174.055C173.959 211.676 173.888 211.618 173.849 211.508C173.811 211.399 173.843 211.315 173.94 211.264L178.078 209.326C178.13 209.301 178.188 209.288 178.265 209.288C178.465 209.288 178.69 209.571 178.934 210.124C179.185 210.684 179.308 211.399 179.308 212.268V212.493C180.325 211.251 181.136 210.408 181.728 209.957C182.327 209.513 182.893 209.288 183.447 209.288C184 209.307 184.515 209.449 184.998 209.738Z" fill="#646D3C"/>
<path d="M197.614 223.802C197.614 223.654 197.639 223.577 197.684 223.577C198.405 223.577 198.933 223.513 199.268 223.39C199.603 223.268 199.834 223.024 199.957 222.663C200.079 222.303 200.143 221.749 200.143 221.009V213.967C200.143 213.047 200.053 212.39 199.866 211.991C199.68 211.592 199.364 211.392 198.914 211.392C198.444 211.392 197.845 211.579 197.124 211.952H197.086C196.989 211.952 196.912 211.888 196.86 211.766C196.809 211.643 196.835 211.553 196.931 211.502L201.553 209.339L201.701 209.301C201.752 209.301 201.804 209.326 201.868 209.378C201.933 209.429 201.965 209.487 201.965 209.564C201.965 209.712 201.952 210.208 201.926 211.038C201.9 211.869 201.888 212.834 201.888 213.929V221.009C201.888 221.756 201.945 222.309 202.055 222.663C202.164 223.024 202.39 223.268 202.724 223.39C203.059 223.513 203.587 223.577 204.308 223.577C204.385 223.577 204.417 223.654 204.417 223.802C204.417 223.95 204.379 224.028 204.308 224.028C203.735 224.028 203.291 224.015 202.969 223.989L200.993 223.95L199.055 223.989C198.708 224.015 198.251 224.028 197.678 224.028C197.639 224.028 197.614 223.95 197.614 223.802ZM199.609 204.428C199.351 204.177 199.216 203.829 199.216 203.385C199.216 202.941 199.345 202.593 199.609 202.342C199.873 202.091 200.233 201.969 200.71 201.969C201.154 201.969 201.508 202.091 201.752 202.342C202.003 202.593 202.126 202.941 202.126 203.385C202.126 203.829 201.997 204.183 201.752 204.428C201.501 204.679 201.154 204.801 200.71 204.801C200.233 204.795 199.866 204.673 199.609 204.428Z" fill="#646D3C"/>
<path d="M229.063 209.944C229.958 210.466 230.679 211.244 231.226 212.274C231.773 213.304 232.044 214.566 232.044 216.059C232.044 217.849 231.651 219.38 230.872 220.661C230.093 221.942 229.063 222.901 227.795 223.551C226.527 224.195 225.201 224.517 223.811 224.517C221.919 224.517 220.258 223.983 218.816 222.914L216.093 224.182H216.023C215.92 224.182 215.862 224.137 215.836 224.054C215.81 223.963 215.836 223.886 215.907 223.809C216.75 223.21 217.336 222.689 217.657 222.245C217.979 221.801 218.14 221.112 218.14 220.198V201.705C218.14 200.785 218.05 200.128 217.863 199.729C217.677 199.33 217.361 199.131 216.911 199.131C216.486 199.131 215.894 199.304 215.121 199.652H215.044C214.973 199.652 214.915 199.588 214.877 199.465C214.838 199.343 214.87 199.266 214.967 199.24L219.44 197.039L219.627 197C219.679 197 219.73 197.026 219.794 197.071C219.859 197.122 219.891 197.18 219.891 197.257V212.577C220.811 211.56 221.771 210.73 222.775 210.099C223.779 209.468 224.892 209.146 226.109 209.146C227.19 209.159 228.169 209.416 229.063 209.944ZM228.658 222.11C229.527 220.977 229.958 219.361 229.958 217.243C229.958 215.01 229.501 213.272 228.581 212.043C227.66 210.813 226.469 210.195 225.002 210.195C224.081 210.195 223.212 210.466 222.395 211C221.577 211.534 220.741 212.261 219.897 213.182V219.445C219.897 220.436 220.174 221.266 220.734 221.923C221.294 222.579 221.964 223.062 222.749 223.358C223.534 223.654 224.294 223.802 225.04 223.802C226.579 223.802 227.789 223.236 228.658 222.11Z" fill="#646D3C"/>
<path d="M256.716 209.944C257.61 210.466 258.331 211.244 258.878 212.274C259.426 213.304 259.696 214.566 259.696 216.059C259.696 217.849 259.303 219.38 258.524 220.661C257.746 221.942 256.716 222.901 255.448 223.551C254.18 224.195 252.854 224.517 251.463 224.517C249.571 224.517 247.91 223.983 246.468 222.914L243.746 224.182H243.675C243.572 224.182 243.514 224.137 243.488 224.054C243.462 223.963 243.488 223.886 243.559 223.809C244.402 223.21 244.988 222.689 245.31 222.245C245.632 221.801 245.793 221.112 245.793 220.198V201.705C245.793 200.785 245.702 200.128 245.516 199.729C245.329 199.33 245.014 199.131 244.563 199.131C244.138 199.131 243.546 199.304 242.774 199.652H242.696C242.626 199.652 242.568 199.588 242.529 199.465C242.49 199.343 242.523 199.266 242.619 199.24L247.093 197.039L247.279 197C247.331 197 247.382 197.026 247.447 197.071C247.511 197.122 247.543 197.18 247.543 197.257V212.577C248.464 211.56 249.423 210.73 250.427 210.099C251.431 209.468 252.545 209.146 253.761 209.146C254.843 209.159 255.821 209.416 256.716 209.944ZM256.31 222.11C257.179 220.977 257.61 219.361 257.61 217.243C257.61 215.01 257.153 213.272 256.233 212.043C255.312 210.813 254.122 210.195 252.654 210.195C251.734 210.195 250.865 210.466 250.047 211C249.23 211.534 248.393 212.261 247.55 213.182V219.445C247.55 220.436 247.827 221.266 248.387 221.923C248.947 222.579 249.616 223.062 250.401 223.358C251.187 223.654 251.946 223.802 252.693 223.802C254.231 223.802 255.441 223.236 256.31 222.11Z" fill="#646D3C"/>
<path d="M282.952 222.013C283.029 222.013 283.094 222.058 283.158 222.142C283.222 222.232 283.229 222.309 283.177 222.386C281.536 223.777 279.759 224.472 277.848 224.472C276.432 224.472 275.228 224.137 274.23 223.468C273.239 222.798 272.486 221.923 271.977 220.842C271.469 219.76 271.211 218.589 271.211 217.321C271.211 215.86 271.559 214.508 272.254 213.278C272.949 212.049 273.889 211.084 275.067 210.375C276.245 209.667 277.532 209.313 278.923 209.313C280.313 209.313 281.362 209.693 282.07 210.453C282.778 211.212 283.132 212.249 283.132 213.568C283.132 213.916 283.1 214.154 283.042 214.295C282.984 214.437 282.862 214.501 282.688 214.501L273.413 214.54C273.361 215.139 273.336 215.621 273.336 215.995C273.336 218.157 273.844 219.915 274.861 221.266C275.878 222.625 277.307 223.3 279.148 223.3C279.914 223.3 280.577 223.197 281.124 222.985C281.671 222.779 282.263 222.457 282.913 222.039H282.952V222.013ZM274.958 211.116C274.224 211.824 273.735 212.809 273.484 214.077L280.976 213.929C281.002 212.635 280.718 211.669 280.139 211.026C279.553 210.382 278.755 210.054 277.732 210.054C276.618 210.054 275.691 210.408 274.958 211.116Z" fill="#646D3C"/>
<path d="M309.079 222.013C309.175 222.013 309.24 222.071 309.266 222.18C309.291 222.29 309.253 222.374 309.156 222.425L305.32 224.253C305.223 224.305 305.12 224.33 305.024 224.33C304.754 224.33 304.502 224.111 304.277 223.68C304.052 223.249 303.917 222.657 303.872 221.91L301.818 223.178C301.194 223.577 300.653 223.86 300.177 224.034C299.707 224.208 299.218 224.298 298.722 224.298C297.853 224.298 297.165 224.047 296.65 223.552C296.141 223.056 295.884 222.457 295.884 221.762C295.884 221.067 296.154 220.443 296.701 219.883C297.248 219.323 298.195 218.795 299.533 218.299L303.82 216.696V214.09C303.82 211.36 302.977 209.989 301.291 209.989C300.447 209.989 299.784 210.26 299.315 210.794C298.845 211.328 298.516 211.953 298.343 212.673C298.246 213.118 298.124 213.459 297.989 213.697C297.853 213.935 297.57 214.051 297.152 214.051C296.804 214.051 296.527 213.941 296.334 213.736C296.135 213.523 296.038 213.285 296.038 213.008C296.038 212.461 296.405 211.895 297.139 211.315C297.873 210.73 298.761 210.247 299.804 209.861C300.846 209.474 301.78 209.281 302.597 209.281C303.588 209.281 304.329 209.603 304.818 210.253C305.301 210.897 305.545 211.804 305.545 212.976V220.018C305.545 220.938 305.648 221.595 305.861 221.994C306.073 222.393 306.44 222.592 306.961 222.592C307.431 222.592 308.12 222.406 309.015 222.032H309.079V222.013ZM303.82 221.382V221.273V217.211L299.868 218.705C299.147 219.001 298.652 219.329 298.375 219.67C298.104 220.018 297.969 220.43 297.969 220.9C297.969 221.498 298.156 222.007 298.529 222.425C298.903 222.85 299.424 223.062 300.093 223.062C300.64 223.062 301.284 222.85 302.031 222.425L303.82 221.382Z" fill="#646D3C"/>
<path d="M336.429 223.802C336.429 223.951 336.39 224.028 336.319 224.028C335.746 224.028 335.296 224.015 334.98 223.989L333.043 223.951L331.067 223.989C330.745 224.015 330.294 224.028 329.728 224.028C329.651 224.028 329.619 223.957 329.619 223.802C329.619 223.654 329.657 223.577 329.728 223.577C330.449 223.577 330.97 223.513 331.292 223.391C331.614 223.268 331.839 223.024 331.961 222.663C332.084 222.303 332.148 221.749 332.148 221.009V214.785C332.148 213.266 331.858 212.165 331.292 211.47C330.719 210.775 329.824 210.427 328.608 210.427C327.816 210.427 326.999 210.659 326.168 211.116C325.338 211.573 324.572 212.204 323.877 212.995V221.009C323.877 221.756 323.935 222.309 324.044 222.663C324.154 223.024 324.379 223.268 324.714 223.391C325.048 223.513 325.576 223.577 326.297 223.577C326.374 223.577 326.407 223.654 326.407 223.802C326.407 223.951 326.368 224.028 326.297 224.028C325.724 224.028 325.28 224.015 324.958 223.989L323.021 223.951L321.045 223.989C320.723 224.015 320.272 224.028 319.706 224.028C319.635 224.028 319.597 223.957 319.597 223.802C319.597 223.654 319.635 223.577 319.706 223.577C320.427 223.577 320.948 223.513 321.27 223.391C321.592 223.268 321.817 223.024 321.939 222.663C322.062 222.303 322.126 221.749 322.126 221.009V213.555C322.126 212.686 322.03 212.062 321.83 211.689C321.631 211.315 321.283 211.129 320.787 211.129C320.388 211.129 319.693 211.315 318.702 211.689H318.618C318.522 211.689 318.451 211.631 318.412 211.521C318.374 211.412 318.406 211.328 318.502 211.277L322.641 209.339C322.693 209.313 322.751 209.301 322.828 209.301C323.027 209.301 323.253 209.584 323.497 210.137C323.748 210.697 323.871 211.412 323.871 212.281V212.429C324.862 211.29 325.821 210.453 326.741 209.931C327.662 209.41 328.614 209.146 329.612 209.146C331.002 209.146 332.064 209.519 332.798 210.266C333.532 211.013 333.899 212.139 333.899 213.658V221.003C333.899 221.749 333.95 222.303 334.066 222.657C334.176 223.017 334.401 223.262 334.736 223.384C335.07 223.506 335.598 223.571 336.319 223.571C336.39 223.577 336.429 223.654 336.429 223.802Z" fill="#646D3C"/>
<path d="M492.609 209.867C492.609 210.015 492.571 210.092 492.5 210.092C491.901 210.092 491.406 210.279 491.007 210.652C490.608 211.026 490.209 211.695 489.816 212.667L485.156 223.996C485.13 224.092 484.995 224.144 484.744 224.144C484.493 224.144 484.358 224.092 484.338 223.996L480.2 214.9L476.434 223.996C476.408 224.092 476.273 224.144 476.022 224.144C475.771 224.144 475.636 224.092 475.617 223.996L470.512 212.738C470.017 211.643 469.611 210.929 469.302 210.594C468.993 210.26 468.601 210.092 468.131 210.092C468.053 210.092 468.021 210.015 468.021 209.867C468.021 209.719 468.06 209.642 468.131 209.642C468.626 209.642 469.013 209.655 469.289 209.68L470.409 209.719L472.572 209.68C472.945 209.655 473.48 209.642 474.175 209.642C474.252 209.642 474.284 209.712 474.284 209.867C474.284 210.015 474.246 210.092 474.175 210.092C473.454 210.092 472.9 210.163 472.52 210.298C472.134 210.433 471.941 210.665 471.941 210.987C471.941 211.161 471.993 211.347 472.089 211.547L476.711 221.646L479.839 214.044L479.24 212.738C478.745 211.643 478.333 210.929 478.011 210.594C477.689 210.26 477.29 210.092 476.82 210.092C476.769 210.092 476.743 210.015 476.743 209.867C476.743 209.719 476.769 209.642 476.82 209.642L478.011 209.68C478.262 209.706 478.629 209.719 479.131 209.719L481.48 209.68C481.828 209.655 482.298 209.642 482.896 209.642C482.967 209.642 483.006 209.712 483.006 209.867C483.006 210.015 482.967 210.092 482.896 210.092C481.377 210.092 480.624 210.388 480.624 210.987C480.624 211.161 480.676 211.347 480.772 211.547L485.394 221.685L489.159 212.442C489.333 211.972 489.423 211.624 489.423 211.399C489.423 210.929 489.179 210.594 488.696 210.395C488.213 210.195 487.421 210.099 486.327 210.099C486.276 210.099 486.25 210.021 486.25 209.873C486.25 209.725 486.276 209.648 486.327 209.648C486.997 209.648 487.505 209.661 487.853 209.687L490.086 209.725L491.387 209.687C491.612 209.661 491.985 209.648 492.507 209.648C492.571 209.642 492.609 209.719 492.609 209.867Z" fill="#646D3C"/>
<path d="M514.675 222.013C514.752 222.013 514.816 222.058 514.881 222.142C514.945 222.232 514.951 222.309 514.9 222.386C513.259 223.777 511.482 224.472 509.57 224.472C508.154 224.472 506.951 224.137 505.953 223.468C504.962 222.798 504.209 221.923 503.7 220.842C503.192 219.76 502.934 218.589 502.934 217.321C502.934 215.86 503.282 214.508 503.977 213.278C504.672 212.049 505.612 211.084 506.79 210.375C507.968 209.667 509.255 209.313 510.645 209.313C512.036 209.313 513.085 209.693 513.793 210.453C514.501 211.212 514.855 212.249 514.855 213.568C514.855 213.916 514.823 214.154 514.765 214.295C514.707 214.437 514.585 214.501 514.411 214.501L505.135 214.54C505.084 215.139 505.058 215.621 505.058 215.995C505.058 218.157 505.567 219.915 506.584 221.266C507.601 222.625 509.03 223.3 510.871 223.3C511.637 223.3 512.3 223.197 512.847 222.985C513.394 222.779 513.986 222.457 514.636 222.039H514.675V222.013ZM506.68 211.116C505.946 211.824 505.457 212.809 505.206 214.077L512.699 213.929C512.724 212.635 512.441 211.669 511.862 211.026C511.276 210.382 510.478 210.054 509.454 210.054C508.334 210.054 507.414 210.408 506.68 211.116Z" fill="#646D3C"/>
<path d="M540.795 222.013C540.891 222.013 540.956 222.071 540.981 222.18C541.007 222.29 540.969 222.374 540.872 222.425L537.036 224.253C536.939 224.305 536.836 224.33 536.74 224.33C536.469 224.33 536.218 224.111 535.993 223.68C535.768 223.249 535.633 222.657 535.588 221.91L533.534 223.178C532.91 223.577 532.369 223.86 531.893 224.034C531.417 224.208 530.934 224.298 530.438 224.298C529.569 224.298 528.881 224.047 528.366 223.552C527.857 223.056 527.6 222.457 527.6 221.762C527.6 221.067 527.87 220.443 528.417 219.883C528.964 219.323 529.91 218.795 531.249 218.299L535.536 216.696V214.09C535.536 211.36 534.693 209.989 533.006 209.989C532.163 209.989 531.5 210.26 531.03 210.794C530.56 211.328 530.232 211.953 530.058 212.673C529.962 213.118 529.84 213.459 529.704 213.697C529.569 213.935 529.286 214.051 528.868 214.051C528.52 214.051 528.243 213.941 528.05 213.736C527.851 213.523 527.754 213.285 527.754 213.008C527.754 212.461 528.121 211.895 528.855 211.315C529.589 210.73 530.477 210.247 531.52 209.861C532.562 209.474 533.496 209.281 534.313 209.281C535.304 209.281 536.045 209.603 536.534 210.253C537.016 210.897 537.261 211.804 537.261 212.976V220.018C537.261 220.938 537.364 221.595 537.576 221.994C537.789 222.393 538.156 222.592 538.677 222.592C539.147 222.592 539.836 222.406 540.73 222.032H540.795V222.013ZM535.542 221.382V221.273V217.211L531.59 218.705C530.869 219.001 530.374 219.329 530.097 219.67C529.827 220.018 529.692 220.43 529.692 220.9C529.692 221.498 529.878 222.007 530.252 222.425C530.625 222.85 531.146 223.062 531.816 223.062C532.363 223.062 533.006 222.85 533.753 222.425L535.542 221.382Z" fill="#646D3C"/>
<path d="M561.271 209.738C561.753 210.021 561.998 210.35 561.998 210.723C561.998 210.974 561.901 211.193 561.715 211.392C561.528 211.592 561.264 211.689 560.91 211.689C560.659 211.689 560.44 211.618 560.241 211.483C560.041 211.347 559.919 211.264 559.867 211.238C559.397 210.865 558.928 210.678 558.451 210.678C558.104 210.678 557.737 210.826 557.351 211.122C556.964 211.418 556.379 212.055 555.58 213.021V220.996C555.58 221.743 555.67 222.296 555.844 222.65C556.018 223.011 556.359 223.255 556.868 223.378C557.376 223.5 558.187 223.564 559.307 223.564C559.378 223.564 559.417 223.642 559.417 223.79C559.417 223.938 559.378 224.015 559.307 224.015C558.509 224.015 557.878 224.002 557.408 223.976L554.724 223.938L552.748 223.976C552.426 224.002 551.976 224.015 551.409 224.015C551.338 224.015 551.3 223.944 551.3 223.79C551.3 223.642 551.338 223.564 551.409 223.564C552.13 223.564 552.652 223.5 552.973 223.378C553.295 223.255 553.521 223.011 553.643 222.65C553.765 222.29 553.83 221.736 553.83 220.996V213.542C553.83 212.673 553.733 212.049 553.533 211.676C553.334 211.302 552.986 211.116 552.491 211.116C552.092 211.116 551.396 211.302 550.405 211.676H550.328C550.231 211.676 550.161 211.618 550.122 211.508C550.083 211.399 550.115 211.315 550.212 211.264L554.351 209.326C554.402 209.301 554.46 209.288 554.538 209.288C554.737 209.288 554.962 209.571 555.207 210.124C555.458 210.684 555.58 211.399 555.58 212.268V212.493C556.597 211.251 557.408 210.408 558.001 209.957C558.599 209.513 559.166 209.288 559.719 209.288C560.273 209.307 560.788 209.449 561.271 209.738Z" fill="#646D3C"/>
<path d="M456.255 217.99H351.137V218.685H456.255V217.99Z" fill="#646D3C"/>
</svg>
